<?xml version="1.0" encoding="UTF-8" standalone="no"?>
<!DOCTYPE svg PUBLIC "-//W3C//DTD SVG 1.1//EN"
 "http://www.w3.org/Graphics/SVG/1.1/DTD/svg11.dtd">
<!-- Generated by graphviz version 2.40.1 (20161225.0304)
 -->
<!-- Title: G Pages: 1 -->
<svg width="1494pt" height="762pt"
 viewBox="0.00 0.00 1494.00 762.00" xmlns="http://www.w3.org/2000/svg" xmlns:xlink="http://www.w3.org/1999/xlink">
<g id="graph0" class="graph" transform="scale(1 1) rotate(0) translate(4 758)">
<title>G</title>
<polygon fill="#ffffff" stroke="transparent" points="-4,4 -4,-758 1490,-758 1490,4 -4,4"/>
<!-- A0 -->
<g id="node1" class="node">
<title>A0</title>
<polygon fill="none" stroke="#000000" points="0,-476 0,-508 360,-508 360,-476 0,-476"/>
<text text-anchor="start" x="151.1005" y="-489" font-family="Helvetica,sans-Serif" font-size="10.00" fill="#000000">Parqueadero</text>
<polygon fill="none" stroke="#000000" points="0,-432 0,-476 360,-476 360,-432 0,-432"/>
<text text-anchor="start" x="146.942" y="-457" font-family="Helvetica,sans-Serif" font-size="10.00" fill="#000000">&#45;nombre:String</text>
<text text-anchor="start" x="136.658" y="-445" font-family="Helvetica,sans-Serif" font-size="10.00" fill="#000000">&#45;numeroPuestos:int</text>
<polygon fill="none" stroke="#000000" points="0,-232 0,-432 360,-432 360,-232 0,-232"/>
<text text-anchor="start" x="73.1755" y="-413" font-family="Helvetica,sans-Serif" font-size="10.00" fill="#000000">+Constructor(nombre:String,numeroPuestos:Int)</text>
<text text-anchor="start" x="134.5795" y="-401" font-family="Helvetica,sans-Serif" font-size="10.00" fill="#000000">+getNombre():String</text>
<text text-anchor="start" x="124.2955" y="-389" font-family="Helvetica,sans-Serif" font-size="10.00" fill="#000000">+getNumeroPuestos():int</text>
<text text-anchor="start" x="107.3435" y="-377" font-family="Helvetica,sans-Serif" font-size="10.00" fill="#000000">+addVehiculo(Vehiculo:vehiculo)</text>
<text text-anchor="start" x="102.3435" y="-365" font-family="Helvetica,sans-Serif" font-size="10.00" fill="#000000">+crearPuestos(Int numeroPuestos)</text>
<text text-anchor="start" x="20.3755" y="-353" font-family="Helvetica,sans-Serif" font-size="10.00" fill="#000000">+addVehiculoPuestoDado(Vehiculo vehiculo, int posicionI, int posicionJ)</text>
<text text-anchor="start" x="9.542" y="-341" font-family="Helvetica,sans-Serif" font-size="10.00" fill="#000000">+removeVehiculoPuestoDado(posicionI:int, posicionJ:int, fechaSalida:Fecha)</text>
<text text-anchor="start" x="41.5025" y="-329" font-family="Helvetica,sans-Serif" font-size="10.00" fill="#000000">+verificarPuestoDisponible(int posicionI, int posicionJ):boolean</text>
<text text-anchor="start" x="18.1495" y="-317" font-family="Helvetica,sans-Serif" font-size="10.00" fill="#000000">+actualizarEstadoPuesto(posicionI:int,posicionJ:int,estadoNuevo:Estado)</text>
<text text-anchor="start" x="19.8335" y="-305" font-family="Helvetica,sans-Serif" font-size="10.00" fill="#000000">+identificarPropietarioPuestoDado(posicionI:int,posicionJ:int):Propietario</text>
<text text-anchor="start" x="97.906" y="-293" font-family="Helvetica,sans-Serif" font-size="10.00" fill="#000000">+getRegistros():Collection&lt;Registro&gt;</text>
<text text-anchor="start" x="103.4435" y="-281" font-family="Helvetica,sans-Serif" font-size="10.00" fill="#000000">+getPuestos():Hashtable&lt;Puesto&gt;</text>
<text text-anchor="start" x="96.786" y="-269" font-family="Helvetica,sans-Serif" font-size="10.00" fill="#000000">+getVehiculos():Collection&lt;Vehiculo&gt;</text>
<text text-anchor="start" x="91.227" y="-257" font-family="Helvetica,sans-Serif" font-size="10.00" fill="#000000">+generarReporteMensual(fecha):double</text>
<text text-anchor="start" x="68.4525" y="-245" font-family="Helvetica,sans-Serif" font-size="10.00" fill="#000000">+generarReporteDiario(fecha):Collection&lt;Double&gt;</text>
</g>
<!-- A1 -->
<g id="node2" class="node">
<title>A1</title>
<polygon fill="none" stroke="#000000" points="764.5,-478 764.5,-522 1066.5,-522 1066.5,-478 764.5,-478"/>
<text text-anchor="start" x="886.04" y="-503" font-family="Helvetica,sans-Serif" font-size="10.00" fill="#000000">&lt;&lt;abstract&gt;&gt;</text>
<text text-anchor="start" x="896.3285" y="-491" font-family="Helvetica,sans-Serif" font-size="10.00" fill="#000000">Vehiculo</text>
<polygon fill="none" stroke="#000000" points="764.5,-434 764.5,-478 1066.5,-478 1066.5,-434 764.5,-434"/>
<text text-anchor="start" x="887.441" y="-459" font-family="Helvetica,sans-Serif" font-size="10.00" fill="#000000">&#45;placa:String</text>
<text text-anchor="start" x="882.997" y="-447" font-family="Helvetica,sans-Serif" font-size="10.00" fill="#000000">&#45;modelo:String</text>
<polygon fill="none" stroke="#000000" points="764.5,-342 764.5,-434 1066.5,-434 1066.5,-342 764.5,-342"/>
<text text-anchor="start" x="774.2305" y="-415" font-family="Helvetica,sans-Serif" font-size="10.00" fill="#000000">+Constructor(placa:String,modelo:String,propietario:Propietario)</text>
<text text-anchor="start" x="875.3535" y="-403" font-family="Helvetica,sans-Serif" font-size="10.00" fill="#000000">+getPlaca():String</text>
<text text-anchor="start" x="871.4645" y="-391" font-family="Helvetica,sans-Serif" font-size="10.00" fill="#000000">+getModelo():String</text>
<text text-anchor="start" x="852.5745" y="-379" font-family="Helvetica,sans-Serif" font-size="10.00" fill="#000000">+getPropietario():Propietario</text>
<text text-anchor="start" x="853.958" y="-367" font-family="Helvetica,sans-Serif" font-size="10.00" fill="#000000">+abstract double getTarifa()</text>
<text text-anchor="start" x="832.5675" y="-355" font-family="Helvetica,sans-Serif" font-size="10.00" fill="#000000">+abstract void setTarifa(double tarifa)</text>
</g>
<!-- A0&#45;&gt;A1 -->
<g id="edge2" class="edge">
<title>A0&#45;&gt;A1</title>
<path fill="none" stroke="#000000" d="M372.3191,-408.1137C385.0411,-409.9673 397.6859,-411.6251 410,-413 524.6541,-425.8019 654.7452,-430.4684 754.2409,-431.9778"/>
<polygon fill="none" stroke="#000000" points="371.9733,-408.0618 365.4457,-411.1262 360.1064,-406.2793 366.634,-403.2149 371.9733,-408.0618"/>
<polygon fill="#000000" stroke="#000000" points="764.3818,-432.1223 754.3187,-436.4793 759.3823,-432.051 754.3828,-431.9797 754.3828,-431.9797 754.3828,-431.9797 759.3823,-432.051 754.447,-427.4802 764.3818,-432.1223 764.3818,-432.1223"/>
<text text-anchor="middle" x="746.1371" y="-437.3155" font-family="Helvetica,sans-Serif" font-size="10.00" fill="#000000">*</text>
<text text-anchor="middle" x="379.287" y="-397.6131" font-family="Helvetica,sans-Serif" font-size="10.00" fill="#000000">1</text>
</g>
<!-- A2 -->
<g id="node3" class="node">
<title>A2</title>
<polygon fill="none" stroke="#000000" points="410.5,-372 410.5,-404 673.5,-404 673.5,-372 410.5,-372"/>
<text text-anchor="start" x="526.4375" y="-385" font-family="Helvetica,sans-Serif" font-size="10.00" fill="#000000">Puesto</text>
<polygon fill="none" stroke="#000000" points="410.5,-316 410.5,-372 673.5,-372 673.5,-316 410.5,-316"/>
<text text-anchor="start" x="513.661" y="-353" font-family="Helvetica,sans-Serif" font-size="10.00" fill="#000000">&#45;posicionI:Int</text>
<text text-anchor="start" x="512.5505" y="-341" font-family="Helvetica,sans-Serif" font-size="10.00" fill="#000000">&#45;posicionJ:Int</text>
<text text-anchor="start" x="508.376" y="-329" font-family="Helvetica,sans-Serif" font-size="10.00" fill="#000000">&#45;estado:Estado</text>
<polygon fill="none" stroke="#000000" points="410.5,-212 410.5,-316 673.5,-316 673.5,-212 410.5,-212"/>
<text text-anchor="start" x="420.163" y="-297" font-family="Helvetica,sans-Serif" font-size="10.00" fill="#000000">+Constructor(posicionI:Int,posicionJ:Int,Estado:Estado)</text>
<text text-anchor="start" x="501.5735" y="-285" font-family="Helvetica,sans-Serif" font-size="10.00" fill="#000000">+getPosicionI():Int</text>
<text text-anchor="start" x="500.463" y="-273" font-family="Helvetica,sans-Serif" font-size="10.00" fill="#000000">+getPosicionJ():Int</text>
<text text-anchor="start" x="497.678" y="-261" font-family="Helvetica,sans-Serif" font-size="10.00" fill="#000000">+getEstado()Estado</text>
<text text-anchor="start" x="500.877" y="-249" font-family="Helvetica,sans-Serif" font-size="10.00" fill="#000000">setEstado(Estado)</text>
<text text-anchor="start" x="489.0705" y="-237" font-family="Helvetica,sans-Serif" font-size="10.00" fill="#000000">+getVehiculo():Vehiculo</text>
<text text-anchor="start" x="490.7395" y="-225" font-family="Helvetica,sans-Serif" font-size="10.00" fill="#000000">+setVehiculo(Vehiculo)</text>
</g>
<!-- A0&#45;&gt;A2 -->
<g id="edge1" class="edge">
<title>A0&#45;&gt;A2</title>
<path fill="none" stroke="#000000" d="M372.3565,-337.0094C384.9987,-334.8412 397.5648,-332.686 409.8062,-330.5865"/>
<polygon fill="none" stroke="#000000" points="372.0478,-337.0623 366.8103,-342.019 360.2205,-339.0908 365.4579,-334.1341 372.0478,-337.0623"/>
<text text-anchor="middle" x="393.3696" y="-338.9813" font-family="Helvetica,sans-Serif" font-size="10.00" fill="#000000">*</text>
<text text-anchor="middle" x="376.657" y="-324.6961" font-family="Helvetica,sans-Serif" font-size="10.00" fill="#000000">1</text>
</g>
<!-- A4 -->
<g id="node5" class="node">
<title>A4</title>
<polygon fill="none" stroke="#000000" points="1158,-722 1158,-754 1368,-754 1368,-722 1158,-722"/>
<text text-anchor="start" x="1244.3885" y="-735" font-family="Helvetica,sans-Serif" font-size="10.00" fill="#000000">Registro</text>
<polygon fill="none" stroke="#000000" points="1158,-678 1158,-722 1368,-722 1368,-678 1158,-678"/>
<text text-anchor="start" x="1199.0965" y="-703" font-family="Helvetica,sans-Serif" font-size="10.00" fill="#000000">fechaIngreso:LocalDateTime</text>
<text text-anchor="start" x="1201.8765" y="-691" font-family="Helvetica,sans-Serif" font-size="10.00" fill="#000000">fechaSalida:LocalDateTime</text>
<polygon fill="none" stroke="#000000" points="1158,-550 1158,-678 1368,-678 1368,-550 1158,-550"/>
<text text-anchor="start" x="1167.8425" y="-659" font-family="Helvetica,sans-Serif" font-size="10.00" fill="#000000">+Constructor(fechaEntrada:LocalDateTime</text>
<text text-anchor="start" x="1201.8765" y="-647" font-family="Helvetica,sans-Serif" font-size="10.00" fill="#000000">fechaSalida:LocalDateTime</text>
<text text-anchor="start" x="1219.9375" y="-635" font-family="Helvetica,sans-Serif" font-size="10.00" fill="#000000">Vehiculo:vechiculo)</text>
<text text-anchor="start" x="1215.9145" y="-623" font-family="Helvetica,sans-Serif" font-size="10.00" fill="#000000">+calcularTiempo():Int</text>
<text text-anchor="start" x="1210.356" y="-611" font-family="Helvetica,sans-Serif" font-size="10.00" fill="#000000">+calcularTarifa():double</text>
<text text-anchor="start" x="1193.528" y="-599" font-family="Helvetica,sans-Serif" font-size="10.00" fill="#000000">getFechaEntrada:fechaEntrada</text>
<text text-anchor="start" x="1200.757" y="-587" font-family="Helvetica,sans-Serif" font-size="10.00" fill="#000000">getFechaSalida:fechaSalida</text>
<text text-anchor="start" x="1215.489" y="-575" font-family="Helvetica,sans-Serif" font-size="10.00" fill="#000000">getVehiculo:vehiculo)</text>
<text text-anchor="start" x="1208.4045" y="-563" font-family="Helvetica,sans-Serif" font-size="10.00" fill="#000000">+setFechaSalida(Fecha)</text>
</g>
<!-- A1&#45;&gt;A4 -->
<g id="edge11" class="edge">
<title>A1&#45;&gt;A4</title>
<path fill="none" stroke="#000000" d="M1066.5022,-527.5985C1097.3016,-547.0974 1129.0713,-567.2106 1157.8499,-585.4302"/>
<polygon fill="#000000" stroke="#000000" points="1057.8442,-522.1172 1068.7004,-523.6642 1062.0688,-524.7918 1066.2933,-527.4663 1066.2933,-527.4663 1066.2933,-527.4663 1062.0688,-524.7918 1063.8862,-531.2684 1057.8442,-522.1172 1057.8442,-522.1172"/>
<text text-anchor="middle" x="1138.0137" y="-579.8758" font-family="Helvetica,sans-Serif" font-size="10.00" fill="#000000">*</text>
<text text-anchor="middle" x="1077.6804" y="-521.6715" font-family="Helvetica,sans-Serif" font-size="10.00" fill="#000000">1</text>
</g>
<!-- A5 -->
<g id="node6" class="node">
<title>A5</title>
<polygon fill="none" stroke="#000000" points="1167,-500 1167,-532 1360,-532 1360,-500 1167,-500"/>
<text text-anchor="start" x="1252.387" y="-513" font-family="Helvetica,sans-Serif" font-size="10.00" fill="#000000">Moto</text>
<polygon fill="none" stroke="#000000" points="1167,-432 1167,-500 1360,-500 1360,-432 1167,-432"/>
<text text-anchor="start" x="1206.825" y="-481" font-family="Helvetica,sans-Serif" font-size="10.00" fill="#000000">&#45;velocidadMaxima:double</text>
<text text-anchor="start" x="1220.439" y="-469" font-family="Helvetica,sans-Serif" font-size="10.00" fill="#000000">&#45;tipoMoto:TipoMoto</text>
<text text-anchor="start" x="1204.882" y="-457" font-family="Helvetica,sans-Serif" font-size="10.00" fill="#000000">&#45;static tarifaClasica:double</text>
<text text-anchor="start" x="1205.438" y="-445" font-family="Helvetica,sans-Serif" font-size="10.00" fill="#000000">&#45;static tarifaHibrida:double</text>
<polygon fill="none" stroke="#000000" points="1167,-340 1167,-432 1360,-432 1360,-340 1167,-340"/>
<text text-anchor="start" x="1176.6805" y="-413" font-family="Helvetica,sans-Serif" font-size="10.00" fill="#000000">+Constructor(velocidadMaxima: double</text>
<text text-anchor="start" x="1217.66" y="-401" font-family="Helvetica,sans-Serif" font-size="10.00" fill="#000000"> tipoMoto: TipoMoto)</text>
<text text-anchor="start" x="1191.679" y="-389" font-family="Helvetica,sans-Serif" font-size="10.00" fill="#000000">+ getVelocidadMaxima():double </text>
<text text-anchor="start" x="1203.073" y="-377" font-family="Helvetica,sans-Serif" font-size="10.00" fill="#000000"> + getTipoMoto(): TipoMoto</text>
<text text-anchor="start" x="1219.74" y="-365" font-family="Helvetica,sans-Serif" font-size="10.00" fill="#000000"> +getTarifa():double</text>
<text text-anchor="start" x="1210.297" y="-353" font-family="Helvetica,sans-Serif" font-size="10.00" fill="#000000">+setTarifa(double tarifa)</text>
</g>
<!-- A1&#45;&gt;A5 -->
<g id="edge3" class="edge">
<title>A1&#45;&gt;A5</title>
<path fill="none" stroke="#000000" d="M1066.6551,-433.7399C1096.8124,-434.087 1127.8936,-434.4448 1156.1809,-434.7704"/>
<polygon fill="none" stroke="#000000" points="1156.4295,-438.2734 1166.4692,-434.8889 1156.5102,-431.2739 1156.4295,-438.2734"/>
</g>
<!-- A7 -->
<g id="node8" class="node">
<title>A7</title>
<polygon fill="none" stroke="#000000" points="1200,-290 1200,-322 1326,-322 1326,-290 1200,-290"/>
<text text-anchor="start" x="1250.5025" y="-303" font-family="Helvetica,sans-Serif" font-size="10.00" fill="#000000">Carro</text>
<polygon fill="none" stroke="#000000" points="1200,-246 1200,-290 1326,-290 1326,-246 1200,-246"/>
<text text-anchor="start" x="1249.6675" y="-271" font-family="Helvetica,sans-Serif" font-size="10.00" fill="#000000">&#45;static</text>
<text text-anchor="start" x="1235.4915" y="-259" font-family="Helvetica,sans-Serif" font-size="10.00" fill="#000000">tarifa:double</text>
<polygon fill="none" stroke="#000000" points="1200,-202 1200,-246 1326,-246 1326,-202 1200,-202"/>
<text text-anchor="start" x="1220.6295" y="-227" font-family="Helvetica,sans-Serif" font-size="10.00" fill="#000000">+getTarifa():double</text>
<text text-anchor="start" x="1209.797" y="-215" font-family="Helvetica,sans-Serif" font-size="10.00" fill="#000000">+setTarifa(double tarifa)</text>
</g>
<!-- A1&#45;&gt;A7 -->
<g id="edge12" class="edge">
<title>A1&#45;&gt;A7</title>
<path fill="none" stroke="#000000" d="M1075.7392,-353.6096C1119.7901,-332.0595 1165.0062,-309.9394 1199.9697,-292.835"/>
<polygon fill="none" stroke="#000000" points="1074.0997,-350.5152 1066.6551,-358.0536 1077.1758,-356.8031 1074.0997,-350.5152"/>
</g>
<!-- A8 -->
<g id="node9" class="node">
<title>A8</title>
<polygon fill="none" stroke="#000000" points="1301.3398,-184 1224.6602,-184 1224.6602,-148 1301.3398,-148 1301.3398,-184"/>
<text text-anchor="middle" x="1263" y="-163" font-family="Helvetica,sans-Serif" font-size="10.00" fill="#000000">Propietario</text>
</g>
<!-- A1&#45;&gt;A8 -->
<g id="edge5" class="edge">
<title>A1&#45;&gt;A8</title>
<path fill="none" stroke="#000000" d="M1066.6944,-369.0087C1081.917,-358.5297 1096.1136,-346.5687 1108,-333 1151.5369,-283.3012 1109.1964,-237.538 1158,-193 1173.3319,-179.0082 1194.9389,-172.0607 1214.5697,-168.6849"/>
<polygon fill="#000000" stroke="#000000" points="1224.6115,-167.2268 1215.362,-173.1171 1219.6634,-167.9453 1214.7153,-168.6638 1214.7153,-168.6638 1214.7153,-168.6638 1219.6634,-167.9453 1214.0686,-164.2105 1224.6115,-167.2268 1224.6115,-167.2268"/>
<text text-anchor="middle" x="1207.888" y="-175.1961" font-family="Helvetica,sans-Serif" font-size="10.00" fill="#000000">1</text>
<text text-anchor="middle" x="1076.661" y="-348.6689" font-family="Helvetica,sans-Serif" font-size="10.00" fill="#000000">1</text>
</g>
<!-- A2&#45;&gt;A1 -->
<g id="edge7" class="edge">
<title>A2&#45;&gt;A1</title>
<path fill="none" stroke="#000000" d="M673.0954,-351.6306C699.4437,-360.3664 727.4052,-369.637 754.6143,-378.6582"/>
<polygon fill="#000000" stroke="#000000" points="764.2033,-381.8374 753.2951,-382.9617 759.4573,-380.2639 754.7113,-378.6903 754.7113,-378.6903 754.7113,-378.6903 759.4573,-380.2639 756.1276,-374.419 764.2033,-381.8374 764.2033,-381.8374"/>
<text text-anchor="middle" x="744.3381" y="-381.156" font-family="Helvetica,sans-Serif" font-size="10.00" fill="#000000">1</text>
<text text-anchor="middle" x="692.9606" y="-346.312" font-family="Helvetica,sans-Serif" font-size="10.00" fill="#000000">1</text>
</g>
<!-- A3 -->
<g id="node4" class="node">
<title>A3</title>
<polygon fill="none" stroke="#000000" points="880.5,-280 880.5,-324 950.5,-324 950.5,-280 880.5,-280"/>
<text text-anchor="start" x="891.319" y="-305" font-family="Helvetica,sans-Serif" font-size="10.00" fill="#000000">&lt;&lt;enum&gt;&gt;</text>
<text text-anchor="start" x="899.9375" y="-293" font-family="Helvetica,sans-Serif" font-size="10.00" fill="#000000">Estado</text>
<polygon fill="none" stroke="#000000" points="880.5,-236 880.5,-280 950.5,-280 950.5,-236 880.5,-236"/>
<text text-anchor="start" x="901.0525" y="-261" font-family="Helvetica,sans-Serif" font-size="10.00" fill="#000000">LIBRE</text>
<text text-anchor="start" x="890.2235" y="-249" font-family="Helvetica,sans-Serif" font-size="10.00" fill="#000000">OCUPADO</text>
</g>
<!-- A2&#45;&gt;A3 -->
<g id="edge6" class="edge">
<title>A2&#45;&gt;A3</title>
<path fill="none" stroke="#000000" d="M673.0954,-298.1479C741.6989,-293.0119 821.2384,-287.057 869.9592,-283.4095"/>
<polygon fill="#000000" stroke="#000000" points="880.1696,-282.6451 870.5335,-287.8792 875.1836,-283.0184 870.1975,-283.3917 870.1975,-283.3917 870.1975,-283.3917 875.1836,-283.0184 869.8615,-278.9043 880.1696,-282.6451 880.1696,-282.6451"/>
<text text-anchor="middle" x="862.7251" y="-289.4271" font-family="Helvetica,sans-Serif" font-size="10.00" fill="#000000">1</text>
<text text-anchor="middle" x="690.5399" y="-285.3659" font-family="Helvetica,sans-Serif" font-size="10.00" fill="#000000">1</text>
</g>
<!-- A6 -->
<g id="node7" class="node">
<title>A6</title>
<polygon fill="none" stroke="#000000" points="1418,-436 1418,-480 1486,-480 1486,-436 1418,-436"/>
<text text-anchor="start" x="1427.819" y="-461" font-family="Helvetica,sans-Serif" font-size="10.00" fill="#000000">&lt;&lt;enum&gt;&gt;</text>
<text text-anchor="start" x="1431.164" y="-449" font-family="Helvetica,sans-Serif" font-size="10.00" fill="#000000">TipoMoto</text>
<polygon fill="none" stroke="#000000" points="1418,-392 1418,-436 1486,-436 1486,-392 1418,-392"/>
<text text-anchor="start" x="1430.6085" y="-417" font-family="Helvetica,sans-Serif" font-size="10.00" fill="#000000">CLASICA</text>
<text text-anchor="start" x="1431.7235" y="-405" font-family="Helvetica,sans-Serif" font-size="10.00" fill="#000000">HIBRIDA</text>
</g>
<!-- A5&#45;&gt;A6 -->
<g id="edge4" class="edge">
<title>A5&#45;&gt;A6</title>
<path fill="none" stroke="#000000" d="M1359.7147,-436C1376.5236,-436 1393.2392,-436 1407.7324,-436"/>
<polygon fill="#000000" stroke="#000000" points="1417.8625,-436 1407.8625,-440.5001 1412.8625,-436 1407.8625,-436.0001 1407.8625,-436.0001 1407.8625,-436.0001 1412.8625,-436 1407.8624,-431.5001 1417.8625,-436 1417.8625,-436"/>
<text text-anchor="middle" x="1399.7363" y="-441.4524" font-family="Helvetica,sans-Serif" font-size="10.00" fill="#000000">1</text>
<text text-anchor="middle" x="1377.8408" y="-424.5476" font-family="Helvetica,sans-Serif" font-size="10.00" fill="#000000">1</text>
</g>
<!-- A9 -->
<g id="node10" class="node">
<title>A9</title>
<polygon fill="none" stroke="#000000" points="1302.001,-130 1223.999,-130 1223.999,-94 1302.001,-94 1302.001,-130"/>
<text text-anchor="middle" x="1263" y="-109" font-family="Helvetica,sans-Serif" font-size="10.00" fill="#000000">Comprador</text>
</g>
<!-- A10 -->
<g id="node11" class="node">
<title>A10</title>
<polygon fill="none" stroke="#000000" points="1188,-44 1188,-76 1339,-76 1339,-44 1188,-44"/>
<text text-anchor="start" x="1232.666" y="-57" font-family="Helvetica,sans-Serif" font-size="10.00" fill="#000000">Administrador</text>
<polygon fill="none" stroke="#000000" points="1188,0 1188,-44 1339,-44 1339,0 1188,0"/>
<text text-anchor="start" x="1197.524" y="-13" font-family="Helvetica,sans-Serif" font-size="10.00" fill="#000000">+cambiarTarifa(Tarifa,double)</text>
</g>
<!-- A11 -->
<g id="node12" class="node">
<title>A11</title>
<polygon fill="none" stroke="#000000" points="723.5,-182 723.5,-214 1108.5,-214 1108.5,-182 723.5,-182"/>
<text text-anchor="start" x="897.383" y="-195" font-family="Helvetica,sans-Serif" font-size="10.00" fill="#000000">Persona</text>
<polygon fill="none" stroke="#000000" points="723.5,-102 723.5,-182 1108.5,-182 1108.5,-102 723.5,-102"/>
<text text-anchor="start" x="880.442" y="-163" font-family="Helvetica,sans-Serif" font-size="10.00" fill="#000000">&#45;nombres:String</text>
<text text-anchor="start" x="880.163" y="-151" font-family="Helvetica,sans-Serif" font-size="10.00" fill="#000000">&#45;apellidos:String</text>
<text text-anchor="start" x="896.5495" y="-139" font-family="Helvetica,sans-Serif" font-size="10.00" fill="#000000">&#45;edad:int</text>
<text text-anchor="start" x="885.167" y="-127" font-family="Helvetica,sans-Serif" font-size="10.00" fill="#000000">&#45;celular:String</text>
<text text-anchor="start" x="885.7215" y="-115" font-family="Helvetica,sans-Serif" font-size="10.00" fill="#000000">&#45;correo:String</text>
<polygon fill="none" stroke="#000000" points="723.5,-10 723.5,-102 1108.5,-102 1108.5,-10 723.5,-10"/>
<text text-anchor="start" x="733.334" y="-83" font-family="Helvetica,sans-Serif" font-size="10.00" fill="#000000">+Constructor(nombres:String,apellidos:String,edad:int,celular:String,correo: String)</text>
<text text-anchor="start" x="868.0795" y="-71" font-family="Helvetica,sans-Serif" font-size="10.00" fill="#000000">+getNombres():String</text>
<text text-anchor="start" x="868.0755" y="-59" font-family="Helvetica,sans-Serif" font-size="10.00" fill="#000000">+getApellidos():String</text>
<text text-anchor="start" x="884.462" y="-47" font-family="Helvetica,sans-Serif" font-size="10.00" fill="#000000">+getEdad():int</text>
<text text-anchor="start" x="872.525" y="-35" font-family="Helvetica,sans-Serif" font-size="10.00" fill="#000000">+getCelular():String</text>
<text text-anchor="start" x="873.0795" y="-23" font-family="Helvetica,sans-Serif" font-size="10.00" fill="#000000">+getCorreo():String</text>
</g>
<!-- A11&#45;&gt;A8 -->
<g id="edge8" class="edge">
<title>A11&#45;&gt;A8</title>
<path fill="none" stroke="#000000" d="M1118.18,-143.4956C1158.9676,-149.8338 1197.5667,-155.8319 1224.6429,-160.0395"/>
<polygon fill="none" stroke="#000000" points="1118.4703,-139.9988 1108.0514,-141.9217 1117.3954,-146.9158 1118.4703,-139.9988"/>
</g>
<!-- A11&#45;&gt;A9 -->
<g id="edge9" class="edge">
<title>A11&#45;&gt;A9</title>
<path fill="none" stroke="#000000" d="M1118.0734,-112C1158.4339,-112 1196.6599,-112 1223.7096,-112"/>
<polygon fill="none" stroke="#000000" points="1118.0515,-108.5001 1108.0514,-112 1118.0514,-115.5001 1118.0515,-108.5001"/>
</g>
<!-- A11&#45;&gt;A10 -->
<g id="edge10" class="edge">
<title>A11&#45;&gt;A10</title>
<path fill="none" stroke="#000000" d="M1117.8739,-68.9046C1142.4468,-63.6718 1166.2342,-58.6062 1187.1967,-54.1423"/>
<polygon fill="none" stroke="#000000" points="1117.1031,-65.4901 1108.0514,-70.9962 1118.5611,-72.3366 1117.1031,-65.4901"/>
</g>
</g>
</svg>
