<?xml version="1.0" encoding="UTF-8" standalone="no"?>
<!DOCTYPE svg PUBLIC "-//W3C//DTD SVG 1.1//EN"
 "http://www.w3.org/Graphics/SVG/1.1/DTD/svg11.dtd">
<!-- Generated by graphviz version 2.40.1 (20161225.0304)
 -->
<!-- Title: G Pages: 1 -->
<svg width="698pt" height="497pt"
 viewBox="0.00 0.00 698.00 497.00" xmlns="http://www.w3.org/2000/svg" xmlns:xlink="http://www.w3.org/1999/xlink">
<g id="graph0" class="graph" transform="scale(1 1) rotate(0) translate(4 493)">
<title>G</title>
<polygon fill="#ffffff" stroke="transparent" points="-4,4 -4,-493 694,-493 694,4 -4,4"/>
<!-- A0 -->
<g id="node1" class="node">
<title>A0</title>
<polygon fill="none" stroke="#000000" points="0,-337 0,-369 106,-369 106,-337 0,-337"/>
<text text-anchor="start" x="24.1005" y="-350" font-family="Helvetica,sans-Serif" font-size="10.00" fill="#000000">Parqueadero</text>
<polygon fill="none" stroke="#000000" points="0,-293 0,-337 106,-337 106,-293 0,-293"/>
<text text-anchor="start" x="19.942" y="-318" font-family="Helvetica,sans-Serif" font-size="10.00" fill="#000000">&#45;nombre:String</text>
<text text-anchor="start" x="9.658" y="-306" font-family="Helvetica,sans-Serif" font-size="10.00" fill="#000000">&#45;numeroPuestos:int</text>
</g>
<!-- A1 -->
<g id="node2" class="node">
<title>A1</title>
<polygon fill="none" stroke="#000000" points="287.5,-302 287.5,-346 372.5,-346 372.5,-302 287.5,-302"/>
<text text-anchor="start" x="300.54" y="-327" font-family="Helvetica,sans-Serif" font-size="10.00" fill="#000000">&lt;&lt;abstract&gt;&gt;</text>
<text text-anchor="start" x="310.8285" y="-315" font-family="Helvetica,sans-Serif" font-size="10.00" fill="#000000">Vehiculo</text>
<polygon fill="none" stroke="#000000" points="287.5,-258 287.5,-302 372.5,-302 372.5,-258 287.5,-258"/>
<text text-anchor="start" x="301.941" y="-283" font-family="Helvetica,sans-Serif" font-size="10.00" fill="#000000">&#45;placa:String</text>
<text text-anchor="start" x="297.497" y="-271" font-family="Helvetica,sans-Serif" font-size="10.00" fill="#000000">&#45;modelo:String</text>
</g>
<!-- A0&#45;&gt;A1 -->
<g id="edge2" class="edge">
<title>A0&#45;&gt;A1</title>
<path fill="none" stroke="#000000" d="M118.4359,-324.1369C166.7269,-319.072 231.6043,-312.2675 276.6279,-307.5454"/>
<polygon fill="none" stroke="#000000" points="118.2465,-324.1567 112.6965,-328.7608 106.312,-325.4085 111.862,-320.8044 118.2465,-324.1567"/>
<polygon fill="#000000" stroke="#000000" points="286.7706,-306.4816 277.2945,-312.0002 281.7978,-307.0032 276.8251,-307.5248 276.8251,-307.5248 276.8251,-307.5248 281.7978,-307.0032 276.3557,-303.0493 286.7706,-306.4816 286.7706,-306.4816"/>
<text text-anchor="middle" x="269.6249" y="-313.7786" font-family="Helvetica,sans-Serif" font-size="10.00" fill="#000000">*</text>
<text text-anchor="middle" x="123.4576" y="-312.1115" font-family="Helvetica,sans-Serif" font-size="10.00" fill="#000000">1</text>
</g>
<!-- A2 -->
<g id="node3" class="node">
<title>A2</title>
<polygon fill="none" stroke="#000000" points="156,-271 156,-303 234,-303 234,-271 156,-271"/>
<text text-anchor="start" x="179.4375" y="-284" font-family="Helvetica,sans-Serif" font-size="10.00" fill="#000000">Puesto</text>
<polygon fill="none" stroke="#000000" points="156,-227 156,-271 234,-271 234,-227 156,-227"/>
<text text-anchor="start" x="166.661" y="-252" font-family="Helvetica,sans-Serif" font-size="10.00" fill="#000000">&#45;posicionI:Int</text>
<text text-anchor="start" x="165.5505" y="-240" font-family="Helvetica,sans-Serif" font-size="10.00" fill="#000000">&#45;posicionJ:Int</text>
</g>
<!-- A0&#45;&gt;A2 -->
<g id="edge1" class="edge">
<title>A0&#45;&gt;A2</title>
<path fill="none" stroke="#000000" d="M117.1748,-301.1723C130.2802,-295.081 143.6987,-288.8443 155.6219,-283.3025"/>
<polygon fill="none" stroke="#000000" points="117.1616,-301.1784 113.4065,-307.3347 106.2796,-306.2363 110.0346,-300.08 117.1616,-301.1784"/>
<text text-anchor="middle" x="142.747" y="-295.6073" font-family="Helvetica,sans-Serif" font-size="10.00" fill="#000000">*</text>
<text text-anchor="middle" x="119.1544" y="-287.9314" font-family="Helvetica,sans-Serif" font-size="10.00" fill="#000000">1</text>
</g>
<!-- A4 -->
<g id="node5" class="node">
<title>A4</title>
<polygon fill="none" stroke="#000000" points="425.5,-457 425.5,-489 572.5,-489 572.5,-457 425.5,-457"/>
<text text-anchor="start" x="480.3885" y="-470" font-family="Helvetica,sans-Serif" font-size="10.00" fill="#000000">Registro</text>
<polygon fill="none" stroke="#000000" points="425.5,-413 425.5,-457 572.5,-457 572.5,-413 425.5,-413"/>
<text text-anchor="start" x="435.0965" y="-438" font-family="Helvetica,sans-Serif" font-size="10.00" fill="#000000">fechaIngreso:LocalDateTime</text>
<text text-anchor="start" x="437.8765" y="-426" font-family="Helvetica,sans-Serif" font-size="10.00" fill="#000000">fechaSalida:LocalDateTime</text>
</g>
<!-- A0&#45;&gt;A4 -->
<g id="edge3" class="edge">
<title>A0&#45;&gt;A4</title>
<path fill="none" stroke="#000000" d="M117.9001,-348.4815C196.4774,-369.6471 328.9616,-405.3331 415.0586,-428.5242"/>
<polygon fill="none" stroke="#000000" points="117.8822,-348.4768 111.0483,-350.7785 106.2952,-345.3556 113.1291,-343.0538 117.8822,-348.4768"/>
<polygon fill="#000000" stroke="#000000" points="424.8006,-431.1483 413.9743,-432.8925 419.9726,-429.8478 415.1447,-428.5473 415.1447,-428.5473 415.1447,-428.5473 419.9726,-429.8478 416.3151,-424.2022 424.8006,-431.1483 424.8006,-431.1483"/>
<text text-anchor="middle" x="405.0998" y="-431.5953" font-family="Helvetica,sans-Serif" font-size="10.00" fill="#000000">*</text>
<text text-anchor="middle" x="125.9959" y="-338.9086" font-family="Helvetica,sans-Serif" font-size="10.00" fill="#000000">1</text>
</g>
<!-- A1&#45;&gt;A4 -->
<g id="edge12" class="edge">
<title>A1&#45;&gt;A4</title>
<path fill="none" stroke="#000000" d="M373.2582,-353.6901C388.7665,-370.6217 406.8829,-388.9369 425,-404 428.6104,-407.0018 432.4243,-409.9658 436.3393,-412.8572"/>
<polygon fill="#000000" stroke="#000000" points="366.3256,-346.0247 376.3708,-350.423 369.6795,-349.7331 373.0333,-353.4414 373.0333,-353.4414 373.0333,-353.4414 369.6795,-349.7331 369.6958,-356.4599 366.3256,-346.0247 366.3256,-346.0247"/>
<text text-anchor="middle" x="416.7469" y="-405.8397" font-family="Helvetica,sans-Serif" font-size="10.00" fill="#000000">*</text>
<text text-anchor="middle" x="384.7529" y="-350.7987" font-family="Helvetica,sans-Serif" font-size="10.00" fill="#000000">1</text>
</g>
<!-- A5 -->
<g id="node6" class="node">
<title>A5</title>
<polygon fill="none" stroke="#000000" points="432.5,-363 432.5,-395 565.5,-395 565.5,-363 432.5,-363"/>
<text text-anchor="start" x="487.887" y="-376" font-family="Helvetica,sans-Serif" font-size="10.00" fill="#000000">Moto</text>
<polygon fill="none" stroke="#000000" points="432.5,-307 432.5,-363 565.5,-363 565.5,-307 432.5,-307"/>
<text text-anchor="start" x="442.325" y="-344" font-family="Helvetica,sans-Serif" font-size="10.00" fill="#000000">&#45;velocidadMaxima:double</text>
<text text-anchor="start" x="455.104" y="-332" font-family="Helvetica,sans-Serif" font-size="10.00" fill="#000000">tarifaClasica:double</text>
<text text-anchor="start" x="454.2705" y="-320" font-family="Helvetica,sans-Serif" font-size="10.00" fill="#000000"> tarifaHibrida:double</text>
</g>
<!-- A1&#45;&gt;A5 -->
<g id="edge4" class="edge">
<title>A1&#45;&gt;A5</title>
<path fill="none" stroke="#000000" d="M381.7523,-317.1501C397.5893,-321.7419 415.2043,-326.8492 431.8508,-331.6757"/>
<polygon fill="none" stroke="#000000" points="382.725,-313.788 372.1458,-314.3648 380.7756,-320.5111 382.725,-313.788"/>
</g>
<!-- A7 -->
<g id="node8" class="node">
<title>A7</title>
<polygon fill="none" stroke="#000000" points="461.5,-257 461.5,-289 536.5,-289 536.5,-257 461.5,-257"/>
<text text-anchor="start" x="486.5025" y="-270" font-family="Helvetica,sans-Serif" font-size="10.00" fill="#000000">Carro</text>
<polygon fill="none" stroke="#000000" points="461.5,-225 461.5,-257 536.5,-257 536.5,-225 461.5,-225"/>
<text text-anchor="start" x="471.4915" y="-238" font-family="Helvetica,sans-Serif" font-size="10.00" fill="#000000">tarifa:double</text>
</g>
<!-- A1&#45;&gt;A7 -->
<g id="edge13" class="edge">
<title>A1&#45;&gt;A7</title>
<path fill="none" stroke="#000000" d="M382.0311,-288.0124C407.5256,-281.224 437.5741,-273.2229 460.7637,-267.0481"/>
<polygon fill="none" stroke="#000000" points="380.9085,-284.6893 372.1458,-290.6446 382.7097,-291.4536 380.9085,-284.6893"/>
</g>
<!-- A8 -->
<g id="node9" class="node">
<title>A8</title>
<polygon fill="none" stroke="#000000" points="536.8398,-207 460.1602,-207 460.1602,-171 536.8398,-171 536.8398,-207"/>
<text text-anchor="middle" x="498.5" y="-186" font-family="Helvetica,sans-Serif" font-size="10.00" fill="#000000">Propietario</text>
</g>
<!-- A1&#45;&gt;A8 -->
<g id="edge6" class="edge">
<title>A1&#45;&gt;A8</title>
<path fill="none" stroke="#000000" d="M371.3822,-257.9497C387.1407,-243.1632 405.8926,-227.5205 425,-216 432.951,-211.2061 441.8909,-207.0484 450.7261,-203.5286"/>
<polygon fill="#000000" stroke="#000000" points="460.2204,-199.9597 452.4433,-207.6906 455.5401,-201.719 450.8599,-203.4783 450.8599,-203.4783 450.8599,-203.4783 455.5401,-201.719 449.2765,-199.2661 460.2204,-199.9597 460.2204,-199.9597"/>
<text text-anchor="middle" x="446.2274" y="-211.2494" font-family="Helvetica,sans-Serif" font-size="10.00" fill="#000000">1</text>
<text text-anchor="middle" x="378.9428" y="-236.4338" font-family="Helvetica,sans-Serif" font-size="10.00" fill="#000000">1</text>
</g>
<!-- A2&#45;&gt;A1 -->
<g id="edge8" class="edge">
<title>A2&#45;&gt;A1</title>
<path fill="none" stroke="#000000" d="M234.2645,-275.8014C247.6205,-279.4755 262.7688,-283.6427 276.9919,-287.5554"/>
<polygon fill="#000000" stroke="#000000" points="286.6574,-290.2143 275.822,-291.9007 281.8365,-288.8881 277.0156,-287.5618 277.0156,-287.5618 277.0156,-287.5618 281.8365,-288.8881 278.2092,-283.223 286.6574,-290.2143 286.6574,-290.2143"/>
<text text-anchor="middle" x="266.9386" y="-290.5562" font-family="Helvetica,sans-Serif" font-size="10.00" fill="#000000">1</text>
<text text-anchor="middle" x="253.9834" y="-269.4596" font-family="Helvetica,sans-Serif" font-size="10.00" fill="#000000">1</text>
</g>
<!-- A3 -->
<g id="node4" class="node">
<title>A3</title>
<polygon fill="none" stroke="#000000" points="294.5,-44 294.5,-88 364.5,-88 364.5,-44 294.5,-44"/>
<text text-anchor="start" x="305.319" y="-69" font-family="Helvetica,sans-Serif" font-size="10.00" fill="#000000">&lt;&lt;enum&gt;&gt;</text>
<text text-anchor="start" x="313.9375" y="-57" font-family="Helvetica,sans-Serif" font-size="10.00" fill="#000000">Estado</text>
<polygon fill="none" stroke="#000000" points="294.5,0 294.5,-44 364.5,-44 364.5,0 294.5,0"/>
<text text-anchor="start" x="315.0525" y="-25" font-family="Helvetica,sans-Serif" font-size="10.00" fill="#000000">LIBRE</text>
<text text-anchor="start" x="304.2235" y="-13" font-family="Helvetica,sans-Serif" font-size="10.00" fill="#000000">OCUPADO</text>
</g>
<!-- A2&#45;&gt;A3 -->
<g id="edge7" class="edge">
<title>A2&#45;&gt;A3</title>
<path fill="none" stroke="#000000" d="M212.1732,-226.9243C228.6365,-191.9442 255.185,-139.2738 284,-97 285.3042,-95.0867 286.6669,-93.164 288.0722,-91.2439"/>
<polygon fill="#000000" stroke="#000000" points="294.4569,-82.8794 291.9664,-93.5587 291.4231,-86.8538 288.3894,-90.8283 288.3894,-90.8283 288.3894,-90.8283 291.4231,-86.8538 284.8123,-88.0979 294.4569,-82.8794 294.4569,-82.8794"/>
<text text-anchor="middle" x="290.1776" y="-99.4162" font-family="Helvetica,sans-Serif" font-size="10.00" fill="#000000">1</text>
<text text-anchor="middle" x="212.3308" y="-203.9249" font-family="Helvetica,sans-Serif" font-size="10.00" fill="#000000">1</text>
</g>
<!-- A6 -->
<g id="node7" class="node">
<title>A6</title>
<polygon fill="none" stroke="#000000" points="622,-351 622,-395 690,-395 690,-351 622,-351"/>
<text text-anchor="start" x="631.819" y="-376" font-family="Helvetica,sans-Serif" font-size="10.00" fill="#000000">&lt;&lt;enum&gt;&gt;</text>
<text text-anchor="start" x="635.164" y="-364" font-family="Helvetica,sans-Serif" font-size="10.00" fill="#000000">TipoMoto</text>
<polygon fill="none" stroke="#000000" points="622,-307 622,-351 690,-351 690,-307 622,-307"/>
<text text-anchor="start" x="634.6085" y="-332" font-family="Helvetica,sans-Serif" font-size="10.00" fill="#000000">CLASICA</text>
<text text-anchor="start" x="635.7235" y="-320" font-family="Helvetica,sans-Serif" font-size="10.00" fill="#000000">HIBRIDA</text>
</g>
<!-- A5&#45;&gt;A6 -->
<g id="edge5" class="edge">
<title>A5&#45;&gt;A6</title>
<path fill="none" stroke="#000000" d="M565.2942,-351C580.9463,-351 597.2435,-351 611.6344,-351"/>
<polygon fill="#000000" stroke="#000000" points="621.7399,-351 611.7399,-355.5001 616.7399,-351 611.7399,-351.0001 611.7399,-351.0001 611.7399,-351.0001 616.7399,-351 611.7399,-346.5001 621.7399,-351 621.7399,-351"/>
<text text-anchor="middle" x="603.6137" y="-356.4524" font-family="Helvetica,sans-Serif" font-size="10.00" fill="#000000">1</text>
<text text-anchor="middle" x="583.4203" y="-339.5476" font-family="Helvetica,sans-Serif" font-size="10.00" fill="#000000">1</text>
</g>
<!-- A9 -->
<g id="node10" class="node">
<title>A9</title>
<polygon fill="none" stroke="#000000" points="537.501,-153 459.499,-153 459.499,-117 537.501,-117 537.501,-153"/>
<text text-anchor="middle" x="498.5" y="-132" font-family="Helvetica,sans-Serif" font-size="10.00" fill="#000000">Comprador</text>
</g>
<!-- A10 -->
<g id="node11" class="node">
<title>A10</title>
<polygon fill="none" stroke="#000000" points="543.1686,-99 453.8314,-99 453.8314,-63 543.1686,-63 543.1686,-99"/>
<text text-anchor="middle" x="498.5" y="-78" font-family="Helvetica,sans-Serif" font-size="10.00" fill="#000000">Administrador</text>
</g>
<!-- A11 -->
<g id="node12" class="node">
<title>A11</title>
<polygon fill="none" stroke="#000000" points="284.5,-186 284.5,-218 375.5,-218 375.5,-186 284.5,-186"/>
<text text-anchor="start" x="311.383" y="-199" font-family="Helvetica,sans-Serif" font-size="10.00" fill="#000000">Persona</text>
<polygon fill="none" stroke="#000000" points="284.5,-106 284.5,-186 375.5,-186 375.5,-106 284.5,-106"/>
<text text-anchor="start" x="294.442" y="-167" font-family="Helvetica,sans-Serif" font-size="10.00" fill="#000000">&#45;nombres:String</text>
<text text-anchor="start" x="294.163" y="-155" font-family="Helvetica,sans-Serif" font-size="10.00" fill="#000000">&#45;apellidos:String</text>
<text text-anchor="start" x="310.5495" y="-143" font-family="Helvetica,sans-Serif" font-size="10.00" fill="#000000">&#45;edad:int</text>
<text text-anchor="start" x="299.167" y="-131" font-family="Helvetica,sans-Serif" font-size="10.00" fill="#000000">&#45;celular:String</text>
<text text-anchor="start" x="299.7215" y="-119" font-family="Helvetica,sans-Serif" font-size="10.00" fill="#000000">&#45;correo:String</text>
</g>
<!-- A11&#45;&gt;A8 -->
<g id="edge9" class="edge">
<title>A11&#45;&gt;A8</title>
<path fill="none" stroke="#000000" d="M385.1551,-170.8916C409.7299,-174.8178 438.0034,-179.3349 460.1645,-182.8754"/>
<polygon fill="none" stroke="#000000" points="385.6608,-167.4281 375.2338,-169.3066 384.5564,-174.3405 385.6608,-167.4281"/>
</g>
<!-- A11&#45;&gt;A9 -->
<g id="edge10" class="edge">
<title>A11&#45;&gt;A9</title>
<path fill="none" stroke="#000000" d="M385.3672,-153.0745C409.5838,-149.2055 437.3585,-144.7682 459.3273,-141.2584"/>
<polygon fill="none" stroke="#000000" points="384.5564,-149.6595 375.2338,-154.6934 385.6608,-156.5719 384.5564,-149.6595"/>
</g>
<!-- A11&#45;&gt;A10 -->
<g id="edge11" class="edge">
<title>A11&#45;&gt;A10</title>
<path fill="none" stroke="#000000" d="M384.2495,-129.0322C397.384,-121.6881 411.5166,-114.2382 425,-108 434.1299,-103.776 444.123,-99.7379 453.7174,-96.1312"/>
<polygon fill="none" stroke="#000000" points="382.3105,-126.108 375.336,-134.0834 385.7618,-132.1981 382.3105,-126.108"/>
</g>
</g>
</svg>
